<?xml version="1.0" encoding="iso-8859-1"?>
<svg version="1.1" id="Capa_1" xmlns="http://www.w3.org/2000/svg" x="0px" y="0px"
	 viewBox="0 0 480 480" style="enable-background:new 0 0 480 480;" xml:space="preserve">
<rect x="8" y="72" style="fill:#FCCBB6;" width="232" height="304"/>
<rect x="240" y="72" style="fill:#F1B39D;" width="232" height="304"/>
<g>
	<path style="fill:#2E5166;" d="M296,32V8c0-4.418-3.578-8-8-8h-32c-2.125,0-4.156,0.844-5.656,2.344l-64,64l11.313,11.313
		L259.313,16H280v16h-24v16h64V32H296z"/>
	<path style="fill:#2E5166;" d="M128,32V8c0-4.418-3.578-8-8-8H88c-2.125,0-4.156,0.844-5.656,2.344l-64,64l11.313,11.313L91.313,16
		H112v16H88v16h64V32H128z"/>
	<path style="fill:#2E5166;" d="M456,32V8c0-4.418-3.578-8-8-8h-32c-2.125,0-4.156,0.844-5.656,2.344l-64,64l11.313,11.313
		L419.313,16H440v16h-24v16h64V32H456z"/>
	<rect x="56" y="376" style="fill:#6F9EBE;" width="40" height="96"/>
	<rect x="384" y="376" style="fill:#6F9EBE;" width="40" height="96"/>
</g>
<g>
	<path style="fill:#3F708D;" d="M319.594,216c-3.766-37.738-33.859-67.83-71.594-71.595V112h-16v32.405
		c-37.735,3.765-67.829,33.857-71.594,71.595H128v16h32.406c3.766,37.737,33.862,67.822,71.594,71.588V336h16v-32.412
		c37.732-3.766,67.829-33.851,71.594-71.588H352v-16H319.594z M232,160.496V216h-55.5C180.117,187.094,203.094,164.117,232,160.496z
		 M176.5,232H232v55.504C203.094,283.883,180.117,260.906,176.5,232z M248,287.504V232h55.5
		C299.883,260.906,276.906,283.883,248,287.504z M248,216v-55.504c28.906,3.621,51.883,26.598,55.5,55.504H248z"/>
	<rect x="32" y="96" style="fill:#3F708D;" width="16" height="16"/>
	<rect x="48" y="112" style="fill:#3F708D;" width="16" height="16"/>
	<rect x="32" y="128" style="fill:#3F708D;" width="16" height="16"/>
	<rect x="64" y="96" style="fill:#3F708D;" width="16" height="16"/>
	<rect x="64" y="128" style="fill:#3F708D;" width="16" height="16"/>
	<rect x="96" y="96" style="fill:#3F708D;" width="16" height="16"/>
	<rect x="80" y="112" style="fill:#3F708D;" width="16" height="16"/>
	<rect x="48" y="144" style="fill:#3F708D;" width="16" height="16"/>
	<rect x="32" y="160" style="fill:#3F708D;" width="16" height="16"/>
	<rect x="432" y="336" style="fill:#3F708D;" width="16" height="16"/>
	<rect x="432" y="304" style="fill:#3F708D;" width="16" height="16"/>
	<rect x="416" y="320" style="fill:#3F708D;" width="16" height="16"/>
	<rect x="400" y="336" style="fill:#3F708D;" width="16" height="16"/>
	<rect x="368" y="336" style="fill:#3F708D;" width="16" height="16"/>
	<rect x="384" y="320" style="fill:#3F708D;" width="16" height="16"/>
	<rect x="400" y="304" style="fill:#3F708D;" width="16" height="16"/>
	<rect x="416" y="288" style="fill:#3F708D;" width="16" height="16"/>
	<rect x="432" y="272" style="fill:#3F708D;" width="16" height="16"/>
</g>
<path d="M416,32v16h64V32h-24V8c0-4.418-3.578-8-8-8h-32c-2.125,0-4.156,0.844-5.656,2.344L348.688,64H211.313l48-48H280v16h-24v16
	h64V32h-24V8c0-4.418-3.578-8-8-8h-32c-2.125,0-4.156,0.844-5.656,2.344L188.688,64H43.313l48-48H112v16H88v16h64V32h-24V8
	c0-4.418-3.578-8-8-8H88c-2.125,0-4.156,0.844-5.656,2.344L20.688,64H8c-4.422,0-8,3.582-8,8v304c0,4.418,3.578,8,8,8h40v88
	c0,4.418,3.578,8,8,8h40c4.422,0,8-3.582,8-8v-88h272v88c0,4.418,3.578,8,8,8h40c4.422,0,8-3.582,8-8v-88h40c4.422,0,8-3.582,8-8V72
	c0-4.418-3.578-8-8-8H371.313l48-48H440v16H416z M88,464H64v-80h24V464z M416,464h-24v-80h24V464z M464,368h-40h-40H96H56H16V80h448
	V368z"/>
<path d="M232,303.595V336h16v-32.405c37.735-3.765,67.829-33.857,71.594-71.595H352v-16h-32.406
	c-3.766-37.738-33.859-67.83-71.594-71.595V112h-16v32.405c-37.735,3.765-67.829,33.857-71.594,71.595H128v16h32.406
	C164.171,269.738,194.265,299.83,232,303.595z M176.5,232H232v55.504C203.094,283.883,180.117,260.906,176.5,232z M248,287.504V232
	h55.5C299.883,260.906,276.906,283.883,248,287.504z M303.5,216H248v-55.504C276.906,164.117,299.883,187.094,303.5,216z
	 M232,160.496V216h-55.5C180.117,187.094,203.094,164.117,232,160.496z"/>
<rect x="32" y="96" width="16" height="16"/>
<rect x="48" y="112" width="16" height="16"/>
<rect x="32" y="128" width="16" height="16"/>
<rect x="64" y="96" width="16" height="16"/>
<rect x="64" y="128" width="16" height="16"/>
<rect x="96" y="96" width="16" height="16"/>
<rect x="80" y="112" width="16" height="16"/>
<rect x="48" y="144" width="16" height="16"/>
<rect x="32" y="160" width="16" height="16"/>
<rect x="432" y="336" width="16" height="16"/>
<rect x="432" y="304" width="16" height="16"/>
<rect x="416" y="320" width="16" height="16"/>
<rect x="400" y="336" width="16" height="16"/>
<rect x="368" y="336" width="16" height="16"/>
<rect x="384" y="320" width="16" height="16"/>
<rect x="400" y="304" width="16" height="16"/>
<rect x="416" y="288" width="16" height="16"/>
<rect x="432" y="272" width="16" height="16"/>
</svg>
